<?xml version="1.0" ?><!DOCTYPE svg  PUBLIC '-//W3C//DTD SVG 1.1//EN'  'http://www.w3.org/Graphics/SVG/1.1/DTD/svg11.dtd'><svg height="80px" id="Layer_1" style="enable-background:new 0 0 80 80;" version="1.1" viewBox="0 0 80 80" width="80px" xml:space="preserve" xmlns="http://www.w3.org/2000/svg" xmlns:xlink="http://www.w3.org/1999/xlink"><style type="text/css">
	.st0{fill:#1C2B36;}
</style><path class="st0" d="M49.8,49.4c-1.7,4.2-2.2,8.7-1.5,12.8l22.3-25.4c-1.3-0.5-2.7-0.8-4.2-0.8C59.8,36,52.9,41.5,49.8,49.4z   M52.4,40.5c-0.8-4.8-1.9-9.5-3.2-13.3H30.8c-1.2,3.8-2.3,8.4-3.2,13.3c2,2.2,3.6,4.9,4.8,7.9c1.8,4.5,2.4,9,1.7,13.4  C33.9,63,35.5,63,35.5,63h8.9c0,0,1.6,0.1,1.4-1.1c-0.7-4.3-0.1-9,1.7-13.5C48.8,45.4,50.4,42.7,52.4,40.5z M54.4,38.5  c3.5-3.1,7.8-4.9,12-4.9c1.7,0,3.4,0.3,5,0.9c0.4,0.1,0.5-0.4,0.5-0.4v-6.9H51.7C53,31.5,53.9,36,54.4,38.5z M70.7,17H9.3l-1.2,1.4  v6.3h63.8v-6.3L70.7,17z M25.6,38.5c0.5-2.5,1.4-7,2.8-11.2H8.1v6.9c0,0,0.1,0.5,0.5,0.4c1.6-0.6,3.2-1,4.9-1  C17.8,33.5,22,35.3,25.6,38.5z M13.5,36c-1.4,0-2.8,0.3-4.2,0.8l22.3,25.4c0.7-4,0.2-8.5-1.5-12.8C27,41.5,20.2,36,13.5,36z"/></svg>